<svg width="87" height="87" viewBox="0 0 87 87" fill="none" xmlns="http://www.w3.org/2000/svg">
<path d="M47.125 40.4188H25.375" stroke="#E7D4EA" stroke-width="5.4375" stroke-linecap="round" stroke-linejoin="round"/>
<path d="M7.25 40.4188V23.6714C7.25 16.2764 13.2313 10.2951 20.6263 10.2951H40.9987C48.3937 10.2951 54.375 14.8988 54.375 22.2938" stroke="#E7D4EA" stroke-width="5.4375" stroke-linecap="round" stroke-linejoin="round"/>
<path d="M63.3649 44.225C61.5524 45.965 60.6825 48.6475 61.4075 51.4025C62.3138 54.7737 65.6488 56.9125 69.1288 56.9125H72.5V62.1688C72.5 70.1801 66.0113 76.6688 58 76.6688H21.75C13.7387 76.6688 7.25 70.1801 7.25 62.1688V36.7938C7.25 28.7826 13.7387 22.2938 21.75 22.2938H58C65.975 22.2938 72.5 28.8188 72.5 36.7938V42.0499H68.5849C66.5549 42.0499 64.7062 42.8475 63.3649 44.225Z" stroke="#E7D4EA" stroke-width="5.4375" stroke-linecap="round" stroke-linejoin="round"/>
<path d="M79.7503 45.7475V53.215C79.7503 55.245 78.0827 56.9126 76.0164 56.9126H69.0202C65.1052 56.9126 61.5166 54.0488 61.1903 50.1338C60.9728 47.8501 61.8427 45.7113 63.3652 44.2251C64.7065 42.8476 66.5552 42.0499 68.5852 42.0499H76.0164C78.0827 42.0499 79.7503 43.7175 79.7503 45.7475Z" stroke="#E7D4EA" stroke-width="5.4375" stroke-linecap="round" stroke-linejoin="round"/>
</svg>
